<svg width="13" viewBox="0 0 13 16" fill="none" xmlns="http://www.w3.org/2000/svg"><path d="M8.57199 4.14296H9.21484L8.57199 13.143H7.92913L8.57199 4.14296ZM6.00056 4.14296H6.64341V13.143H6.00056V4.14296ZM3.42913 4.14296H4.07199L4.71484 13.143H4.07199L3.42913 4.14296ZM8.57199 2.21439V1.12153C8.57199 1.05724 8.44341 0.928673 8.25056 0.928673H4.39341C4.20056 0.928673 4.07199 1.05724 4.07199 1.12153V2.21439H8.57199ZM1.50056 2.85724L2.07913 13.4644C2.09989 13.7243 2.21679 13.9671 2.40699 14.1454C2.59718 14.3237 2.84702 14.4247 3.1077 14.4287H9.53627C9.79695 14.4247 10.0468 14.3237 10.237 14.1454C10.4272 13.9671 10.5441 13.7243 10.5648 13.4644L11.1434 2.85724H1.50056ZM0.857701 2.85724H0.214844V2.21439H3.42913V1.2501C3.43533 0.996308 3.53891 0.754622 3.71842 0.575109C3.89793 0.395596 4.13962 0.292013 4.39341 0.285816H8.25056C8.50435 0.292013 8.74604 0.395596 8.92555 0.575109C9.10506 0.754622 9.20865 0.996308 9.21484 1.2501V2.21439H12.4291V2.85724H11.7863L11.2077 13.4644C11.1867 13.8949 11.002 14.3012 10.6912 14.6C10.3805 14.8987 9.96732 15.0674 9.53627 15.0715H3.1077C2.67665 15.0674 2.26347 14.8987 1.95274 14.6C1.64201 14.3012 1.45725 13.8949 1.43627 13.4644L0.857701 2.85724Z" fill="black"></path></svg>